# xmcd
#
# Track frame offsets: 
#        150
#        17762
#        33575
#        51782
#        67962
#        87315
#        104517
#        121650
#        138765
#        162792
#        180910
#        198757
#        216985
#        234510
#        253392
#        279140
#        302447
#        323877
#
# Disc length: 4645 seconds
#
# Revision: 11
# Processed by: cddbd v1.5.2PL0 Copyright (c) Steve Scherf et al.
# Submitted via: ExactAudioCopyFreeDBPlugin 1.0
#
DISCID=ec122312
DTITLE=Air Supply - Forever Love - 36 Greatest Hits (1980 - 2001) - BS
DTITLE=CD 1
DYEAR=2003
DGENRE=Pop
TTITLE0=Lost in love
TTITLE1=Every woman in the world
TTITLE2=All out of love
TTITLE3=Chances
TTITLE4=The one that you love
TTITLE5=Here I am (just when I thought I was over you)
TTITLE6=I'll never get enough of you
TTITLE7=Tonite
TTITLE8=Sweet dreams
TTITLE9=Come what may
TTITLE10=Even the nights are better
TTITLE11=Two less lonely people in the world
TTITLE12=Young love
TTITLE13=Taking the chance
TTITLE14=Making love (out of nothing at all)
TTITLE15=I can wait forever
TTITLE16=Just as I am
TTITLE17=The power of love
EXTD=
EXTT0=
EXTT1=
EXTT2=
EXTT3=
EXTT4=
EXTT5=
EXTT6=
EXTT7=
EXTT8=
EXTT9=
EXTT10=
EXTT11=
EXTT12=
EXTT13=
EXTT14=
EXTT15=
EXTT16=
EXTT17=
PLAYORDER=
